<?xml version="1.0" encoding="UTF-8" standalone="no"?>
<!DOCTYPE svg PUBLIC "-//W3C//DTD SVG 1.1//EN" "http://www.w3.org/Graphics/SVG/1.1/DTD/svg11.dtd">
<svg width="100%" height="100%" viewBox="0 0 3274 1005" version="1.1" xmlns="http://www.w3.org/2000/svg" xmlns:xlink="http://www.w3.org/1999/xlink" xml:space="preserve" xmlns:serif="http://www.serif.com/" style="fill-rule:evenodd;clip-rule:evenodd;stroke-miterlimit:10;">
    <g transform="matrix(1,0,0,1,-591.076249,-843.09636)">
        <g transform="matrix(4.166667,0,0,4.166667,110.409583,-2126.736973)">
            <path d="M249.56,712.76C249.77,712.79 250.19,712.83 250.39,712.86C260.58,736.21 270.69,759.61 280.85,782.97C306.6,778.5 332.37,774.2 358.15,769.95C347.67,785.52 336.49,800.64 325.74,816.04C323.79,818.47 322.41,821.46 320.03,823.5C293.67,823.82 267.29,823.55 240.92,823.64C220.59,823.55 200.24,823.81 179.92,823.52C178.23,821.93 177.08,819.88 175.71,818.04C164.19,802.01 152.93,785.8 141.32,769.84C166.56,774.05 191.84,778.07 217.03,782.56C218.68,783.48 219.53,781.94 219.95,780.67C229.79,758.02 239.69,735.4 249.56,712.76Z" style="fill:rgb(24,23,23);fill-rule:nonzero;stroke:rgb(24,23,23);stroke-width:0.09px;"/>
        </g>
        <g transform="matrix(4.166667,0,0,4.166667,110.409583,-1590.861973)">
            <path d="M425.41,669.03C425.48,650.72 425.28,632.42 425.59,614.12C428.38,613.52 427.23,616.49 427.55,617.91C427.6,673.26 427.55,728.61 427.57,783.96C427.52,787.46 427.73,790.96 427.41,794.45L425.6,794.45C425.21,752.66 425.52,710.83 425.41,669.03Z" style="fill:rgb(25,25,24);fill-rule:nonzero;stroke:rgb(25,25,24);stroke-width:0.09px;"/>
        </g>
        <g transform="matrix(4.166667,0,0,4.166667,110.409583,-2030.320306)">
            <path d="M682.18,751.68C685.97,749.91 690.93,753.31 689.94,757.59C689.56,762.27 682.76,763.53 680,760.15C677.7,757.52 678.75,752.75 682.18,751.68Z" style="fill-rule:nonzero;stroke:black;stroke-width:0.09px;"/>
        </g>
        <g transform="matrix(4.166667,0,0,4.166667,110.409583,-1809.77864)">
            <path d="M467.1,699.11C469.59,699.11 472.08,699.12 474.58,699.12C474.6,707.32 474.58,715.52 474.53,723.73C478.68,716.38 488.86,714.57 495.87,718.72C500.52,721.61 502.48,727.29 502.66,732.54C502.82,742.15 502.66,751.76 502.7,761.37C500.18,761.39 497.67,761.39 495.16,761.4C495.15,751.76 495.24,742.11 495.15,732.48C495.12,728.95 493.26,725.35 490.01,723.79C485.22,721.67 478.73,722.89 475.85,727.54C474.4,729.56 474.61,732.16 474.58,734.53C474.63,743.47 474.6,752.42 474.65,761.36C472.13,761.38 469.62,761.39 467.11,761.4C467.14,740.63 467.08,719.87 467.1,699.11Z" style="fill-rule:nonzero;stroke:black;stroke-width:0.09px;"/>
        </g>
        <g transform="matrix(4.166667,0,0,4.166667,110.409583,-1809.945306)">
            <path d="M615.86,699.12C618.33,699.12 620.8,699.13 623.28,699.13C623.23,707.52 623.24,715.92 623.25,724.31C627.44,715.64 640.26,714.16 646.98,720.61C650.26,724.01 651.64,728.87 651.55,733.52C651.56,742.81 651.51,752.1 651.58,761.39C649.1,761.41 646.63,761.41 644.17,761.43C644.17,752.48 644.2,743.54 644.16,734.6C644.19,731.09 643.46,727.19 640.53,724.92C634.61,720.21 624.29,723.86 623.28,731.52C623.13,741.48 623.29,751.44 623.25,761.41C620.77,761.4 618.3,761.4 615.84,761.4C615.81,740.64 615.81,719.88 615.86,699.12Z" style="fill-rule:nonzero;stroke:black;stroke-width:0.09px;"/>
        </g>
        <g transform="matrix(4.166667,0,0,4.166667,110.409583,-1809.861973)">
            <path d="M814.89,699.1C817.37,699.09 819.86,699.08 822.35,699.06C822.31,712.07 822.34,725.08 822.28,738.08C829.3,731.37 836.26,724.59 843.45,718.07C846.5,717.43 849.71,717.93 852.83,717.77C846.94,723.42 841.12,729.15 835.19,734.75C841.67,743.6 848.1,752.49 854.53,761.38C851.42,761.46 848.32,761.47 845.22,761.41C840.11,754.12 834.99,746.83 829.92,739.51C827.35,741.89 824.83,744.3 822.31,746.73C822.3,751.64 822.31,756.55 822.3,761.46C819.82,761.45 817.34,761.45 814.86,761.44C814.89,740.66 814.87,719.88 814.89,699.1Z" style="fill-rule:nonzero;stroke:black;stroke-width:0.09px;"/>
        </g>
        <g transform="matrix(4.166667,0,0,4.166667,110.409583,-1730.820306)">
            <path d="M529.5,698.22C535.2,697.12 541.63,697.59 546.42,701.18C551.54,705 554.34,711.29 554.85,717.55C555.67,725.07 553.89,733.47 548.11,738.73C542.6,743.79 534.25,744.44 527.33,742.38C521.22,740.6 516.9,735.01 515.39,729C513.77,722.51 513.91,715.41 516.48,709.19C518.74,703.71 523.63,699.36 529.5,698.22M530.62,704.3C524.84,705.84 522.17,712.04 522.1,717.57C521.72,723.51 522.07,730.53 526.9,734.74C531.2,738.2 537.93,738.08 542.34,734.86C546.28,731.71 547.23,726.32 547.35,721.56C547.42,716.78 547.05,711.5 543.85,707.67C540.69,703.9 535.18,702.95 530.62,704.3Z" style="fill-rule:nonzero;stroke:black;stroke-width:0.09px;"/>
        </g>
        <g transform="matrix(4.166667,0,0,4.166667,110.409583,-1732.695306)">
            <path d="M570.91,701.86C576.26,697.72 583.58,697.65 590,698.6C594.77,699.27 598.84,702.12 602.09,705.55C600.58,707.04 598.99,708.45 597.36,709.81C592.62,704.27 584.19,702.61 577.58,705.45C573.48,707.01 572.64,713.59 576.9,715.47C583.63,718.54 591.89,716.52 598.21,720.77C604.63,725.15 604.48,735.72 598.29,740.23C592.48,744.36 584.79,744.36 578.02,743.33C572.44,742.55 567.59,739.23 564.04,734.96C565.61,733.52 567.21,732.09 568.83,730.69C572.14,733.99 576.11,737.04 580.91,737.56C585.05,737.94 589.82,738.08 593.25,735.33C596.23,732.89 596.01,727.3 592.21,725.8C585.21,722.78 576.57,724.83 570.34,719.81C564.86,715.38 565.44,706.06 570.91,701.86Z" style="fill-rule:nonzero;stroke:black;stroke-width:0.09px;"/>
        </g>
        <g transform="matrix(4.166667,0,0,4.166667,110.409583,-1725.820306)">
            <path d="M763.51,705.27C766.29,700.47 771.38,697.34 776.86,696.7C782.43,696.05 788.67,696.48 793.22,700.12C796.57,702.76 797.78,707.2 797.84,711.31C797.89,719.22 797.77,727.13 797.84,735.04C799.77,735.08 801.72,735.05 803.67,735.01C803.72,737.07 803.77,739.14 803.83,741.21C800.58,741.15 797.07,741.85 794.04,740.37C791.76,739.28 791.07,736.66 790.55,734.42C786.77,743.06 774.88,744.31 767.55,739.67C760.46,735.25 760.28,723.2 767.56,718.87C774.46,714.73 782.84,716.13 790.49,715.87C790.36,712.26 790.58,708.16 788.09,705.23C785.18,702.05 780.35,702.17 776.45,702.9C772.78,703.66 770.34,706.71 768.2,709.53C766.62,708.12 765.06,706.7 763.51,705.27M773.37,722.77C768.54,724.9 768.61,732.9 773.32,735.12C777.69,737.08 783.37,736.58 787.18,733.6C790.88,730.6 790.53,725.43 790.5,721.15C784.8,721.42 778.75,720.46 773.37,722.77Z" style="fill-rule:nonzero;stroke:black;stroke-width:0.09px;"/>
        </g>
        <g transform="matrix(4.166667,0,0,4.166667,110.409583,-1722.070306)">
            <path d="M875.84,696.23C882.76,694.52 891.13,695.79 895.86,701.57C900.27,706.63 901.25,713.63 900.88,720.11C890.19,720.1 879.5,720.14 868.81,720.13C869.13,723.71 869.54,727.55 871.87,730.47C875.68,735.6 883.45,736.36 888.85,733.46C891.45,732.15 892.92,729.53 894.89,727.5C896.66,728.55 898.3,729.83 899.97,731.07C893.97,743.81 873.79,744.94 865.77,733.7C861.21,727.64 860.61,719.55 861.81,712.29C863.01,704.89 868.46,698.15 875.84,696.23M872.73,705.08C870.13,707.61 869.25,711.26 868.9,714.74C877,714.76 885.09,714.77 893.19,714.77C892.87,711.9 892.75,708.85 891.02,706.41C887.23,700.27 877.5,699.94 872.73,705.08Z" style="fill-rule:nonzero;stroke:black;stroke-width:0.09px;"/>
        </g>
        <g transform="matrix(4.166667,0,0,4.166667,110.409583,-1732.15364)">
            <path d="M666.08,699.06C673.58,699.11 681.09,699.05 688.59,699.09C688.51,711.57 688.66,724.06 688.51,736.54C693.32,736.74 698.13,736.61 702.95,736.63C702.93,738.69 702.93,740.74 702.94,742.8C690.64,742.82 678.35,742.83 666.06,742.8C666.06,740.74 666.06,738.69 666.07,736.65C671.1,736.65 676.13,736.62 681.17,736.64C681.22,726.12 681.2,715.59 681.2,705.07C676.14,705.11 671.08,705.07 666.03,705.1C666.04,703.08 666.05,701.07 666.08,699.06Z" style="fill-rule:nonzero;stroke:black;stroke-width:0.09px;"/>
        </g>
        <g transform="matrix(4.166667,0,0,4.166667,110.409583,-1731.77864)">
            <path d="M708.07,699C710.33,699 712.6,699 714.87,699.01C717,711.3 718.05,723.78 720.47,736.01C723.32,723.72 725.8,711.34 728.5,699.01C730.96,698.99 733.42,698.99 735.9,699.01C738.49,711.32 741.03,723.65 743.84,735.91C744.92,732.33 745.1,728.55 745.72,724.88C746.79,716.23 748.37,707.65 749.52,699.01C751.66,698.98 753.79,698.97 755.94,698.97C753.84,713.58 751.17,728.11 748.84,742.68C745.75,742.73 742.66,742.72 739.58,742.62C737.3,731.93 734.69,721.31 732.59,710.59C732.43,709.86 732.16,709.18 731.79,708.55C729.56,719.34 727.21,730.11 724.84,740.87C724.67,741.31 724.31,742.2 724.13,742.64C721.25,742.82 718.36,742.69 715.49,742.62C712.91,728.1 710.47,713.55 708.07,699Z" style="fill-rule:nonzero;stroke:black;stroke-width:0.09px;"/>
        </g>
        <g transform="matrix(4.166667,0,0,4.166667,110.409583,-1732.52864)">
            <path d="M530.62,704.71C535.18,703.36 540.69,704.31 543.85,708.08C547.05,711.91 547.42,717.19 547.35,721.97C547.23,726.73 546.28,732.12 542.34,735.27C537.93,738.49 531.2,738.61 526.9,735.15C522.07,730.94 521.72,723.92 522.1,717.98C522.17,712.45 524.84,706.25 530.62,704.71Z" style="fill:white;fill-rule:nonzero;stroke:white;stroke-width:0.09px;"/>
        </g>
        <g transform="matrix(-1.783456,3.765687,3.765687,1.783456,2595.857087,-3398.17416)">
            <path d="M882.548,723.616C875.861,725.727 871.994,734.662 875.921,740.716C877.386,743.323 880.091,744.737 882.548,746.255C886.015,738.935 889.469,731.619 892.918,724.29C889.623,723.117 885.947,722.35 882.548,723.616Z" style="fill:white;fill-rule:nonzero;stroke:white;stroke-width:0.09px;"/>
        </g>
        <g transform="matrix(-2.571215,3.278714,3.278714,2.571215,3030.902819,-3075.375464)">
            <path d="M778.901,702.899C773.763,705.707 770.785,711.06 767.055,715.378C770.405,718.043 774.257,721.509 778.901,720.449C783.597,719.29 787.496,715.129 788.65,710.48C789.81,705.404 783.558,700.412 778.901,702.899Z" style="fill:white;fill-rule:nonzero;stroke:white;stroke-width:0.09px;"/>
        </g>
        <g transform="matrix(4.166667,0,0,4.166667,110.409583,-1587.695306)">
            <path d="M115.48,700.62C205.16,700.64 294.84,700.58 384.52,700.6C384.53,702.43 384.55,704.26 384.58,706.09C367.08,706.63 349.55,706.17 332.04,706.31C281.37,706.33 230.71,706.3 180.05,706.32C158.49,706.18 136.91,706.61 115.36,706.1C115.4,704.27 115.44,702.44 115.48,700.62Z" style="fill:rgb(251,62,60);fill-rule:nonzero;stroke:rgb(251,62,60);stroke-width:0.09px;"/>
        </g>
        <g transform="matrix(4.166667,0,0,4.166667,110.409583,-1287.236973)">
            <path d="M141.55,694.36C154.31,676.51 166.85,658.49 179.75,640.74C206.07,640.81 232.4,640.74 258.72,640.76C246.25,653.63 233.42,666.16 220.79,678.89C219.37,680.17 218.13,682.05 216.01,682.07C191.18,686.11 166.37,690.28 141.55,694.36Z" style="fill:rgb(25,23,24);fill-rule:nonzero;stroke:rgb(25,23,24);stroke-width:0.09px;"/>
        </g>
        <g transform="matrix(4.166667,0,0,4.166667,110.409583,-1046.070306)">
            <path d="M221.52,629.35C237.01,613.84 252.54,598.39 268.04,582.9C285.44,582.85 302.84,582.93 320.25,582.85C333.14,600.57 345.72,618.51 358.31,636.44C332.48,632.38 306.72,627.82 280.89,623.75C271.47,645.62 261.89,667.42 252.41,689.26C251.67,691.02 250.83,692.73 249.85,694.37C240.36,672.71 231.02,650.99 221.52,629.35Z" style="fill:rgb(24,22,23);fill-rule:nonzero;stroke:rgb(24,22,23);stroke-width:0.09px;"/>
        </g>
        <g transform="matrix(4.166667,0,0,4.166667,110.409583,-1185.861973)">
            <path d="M525.49,632.82C526.89,633.28 528.27,633.76 529.66,634.26C526.71,640.22 523.06,645.86 518.43,650.65C528.7,650.54 538.98,650.62 549.25,650.64C549.03,657.02 548.83,663.41 548.01,669.74C547.62,672.45 546.86,675.85 543.93,676.87C540.95,677.69 537.81,677.22 534.77,677.25C534.22,675.9 533.68,674.56 533.13,673.22C536.15,673.25 539.35,674.11 542.29,673.12C545.54,667.57 544.36,660.62 545.19,654.46C540.98,654.45 536.78,654.46 532.59,654.44C531.57,661.12 529.51,668.18 524.2,672.74C521.61,675.06 518.45,676.59 515.28,677.95C514.58,676.82 513.48,675.88 513.17,674.57C518.36,672.3 523.38,668.82 525.81,663.53C527.17,660.65 527.83,657.51 528.5,654.41C525.14,654.44 521.78,654.45 518.43,654.46C518.44,653.53 518.46,651.66 518.46,650.72C516.99,652.04 515.53,653.38 514.06,654.71C513.01,653.71 511.94,652.76 510.97,651.72C517.36,646.78 522.15,640.13 525.49,632.82Z" style="fill-rule:nonzero;stroke:black;stroke-width:0.09px;"/>
        </g>
        <g transform="matrix(4.166667,0,0,4.166667,110.409583,-1290.52864)">
            <path d="M468.59,659.26C479.64,659.03 490.69,659.19 501.74,659.13C501.72,665.01 501.7,670.89 501.72,676.77C490.74,676.8 479.76,676.86 468.79,676.74C468.44,670.92 468.78,665.09 468.59,659.26M472.48,662.34L472.48,666.42C480.89,666.51 489.31,666.42 497.72,666.43C497.72,665.04 497.73,663.65 497.75,662.27C489.33,662.36 480.9,662.27 472.48,662.34M472.62,669.43C472.58,670.45 472.5,672.48 472.46,673.5C480.88,673.76 489.31,673.55 497.73,673.61C497.73,672.21 497.75,670.81 497.78,669.42C489.39,669.38 481,669.43 472.62,669.43Z" style="fill:rgb(1,1,1);fill-rule:nonzero;stroke:rgb(1,1,1);stroke-width:0.09px;"/>
        </g>
        <g transform="matrix(-2.674088,3.195366,3.195366,2.674088,1724.781811,-2040.238583)">
            <path d="M547.014,654.494C545.774,655.087 544.527,655.674 543.289,656.28C546.123,663.49 548.026,671.328 547.014,679.113C548.6,679.228 550.208,679.348 551.787,679.066C552.467,670.65 549.818,662.331 547.014,654.494Z" style="fill-rule:nonzero;stroke:black;stroke-width:0.09px;"/>
        </g>
        <g transform="matrix(4.166667,0,0,4.166667,110.409583,-1192.445306)">
            <path d="M565.63,636.74C567.26,636.95 568.89,637.16 570.53,637.37C567.86,646.41 566.18,656.16 568.1,665.51C569.08,663.06 569.99,660.59 571.03,658.17C571.95,658.99 574.36,659.6 573.04,661.31C571.52,665.87 569.55,670.45 569.84,675.37C568.55,675.45 567.27,675.53 566,675.61C562,662.96 563.52,649.57 565.63,636.74Z" style="fill-rule:nonzero;stroke:black;stroke-width:0.09px;"/>
        </g>
        <g transform="matrix(4.166667,0,0,4.166667,110.409583,-1182.486973)">
            <path d="M590.59,633.91C592.12,633.88 593.66,633.85 595.2,633.83C595.27,637.44 595.34,641.04 595.35,644.66C598.06,644.34 600.77,643.98 603.48,643.55C603.49,645.01 603.5,646.47 603.51,647.94C600.8,648.15 598.1,648.38 595.4,648.56C595.4,655.23 596.02,662.4 592.55,668.42C590.71,671.75 587.81,674.4 584.44,676.13C583.39,675.05 582.32,673.99 581.27,672.93C584.16,671.4 586.94,669.43 588.58,666.52C591.79,661.21 591.25,654.71 591.26,648.76C586.45,648.87 581.64,648.87 576.84,648.67C576.85,647.62 576.85,645.53 576.85,644.49C581.63,644.92 586.45,644.93 591.25,644.75C591.25,641.12 591.11,637.5 590.59,633.91Z" style="fill-rule:nonzero;stroke:black;stroke-width:0.09px;"/>
        </g>
        <g transform="matrix(-0.666491,4.113016,4.113016,0.666491,-306.843337,-965.071513)">
            <path d="M485.112,658.7C483.697,667 482.437,675.336 481.001,683.633C482.367,683.834 483.74,684.047 485.112,684.269C486.448,675.966 487.884,667.669 489.14,659.352C488.133,659.189 486.119,658.863 485.112,658.7Z" style="fill:white;fill-rule:nonzero;stroke:white;stroke-width:0.09px;"/>
        </g>
        <g transform="matrix(-0.684199,4.110107,4.110107,0.684199,-266.764735,-940.74296)">
            <path d="M485.062,651.638C483.686,659.905 482.259,668.172 480.92,676.455C482.296,676.654 483.681,676.864 485.062,677.094C486.385,668.778 487.977,660.497 489.103,652.149C488.09,652.021 486.074,651.766 485.062,651.638Z" style="fill:white;fill-rule:nonzero;stroke:white;stroke-width:0.09px;"/>
        </g>
        <g transform="matrix(4.166667,0,0,4.166667,110.409583,-1114.52864)">
            <path d="M470.86,636.62C471.52,634.44 474.07,635.87 475.6,635.6C475.03,636.88 474.46,638.17 473.9,639.46C477.11,639.41 480.32,639.41 483.53,639.4C483.52,638.06 483.51,636.72 483.51,635.39C484.5,635.4 486.47,635.41 487.45,635.41C487.43,636.73 487.41,638.06 487.4,639.39C492.91,639.37 498.42,639.36 503.94,639.35C503.92,640.2 503.9,641.89 503.89,642.74C498.39,642.78 492.9,642.71 487.4,642.81C487.42,644.27 487.43,645.74 487.45,647.21C492.27,647.18 497.1,647.15 501.92,647.19C501.91,648.03 501.87,649.7 501.86,650.53C497.04,650.51 492.24,650.54 487.43,650.55C487.43,652.3 487.43,654.04 487.45,655.79C494.02,655.78 500.58,655.79 507.15,655.79C507.17,656.62 507.21,658.28 507.23,659.12C492.61,659.21 478,659.16 463.38,659.18C463.36,658.05 463.34,656.93 463.33,655.81C470.06,655.75 476.8,655.79 483.53,655.77L483.53,650.56C478.95,650.57 474.38,650.55 469.8,650.55L469.8,647.23C474.37,647.25 478.95,647.25 483.53,647.23C483.53,645.75 483.55,644.28 483.57,642.81C479.52,642.76 475.47,642.68 471.42,642.88C469.82,644.88 467.95,646.66 466.01,648.33C465,647.45 463.99,646.58 462.98,645.71C466.26,643.3 468.95,640.21 470.86,636.62Z" style="fill:rgb(1,1,1);fill-rule:nonzero;stroke:rgb(1,1,1);stroke-width:0.09px;"/>
        </g>
    </g>
</svg>
